<svg width="21" height="29" viewBox="0 0 21 29" fill="none" xmlns="http://www.w3.org/2000/svg">
<path d="M0 4.1875C0 2.27344 1.53125 0.6875 3.5 0.6875H12.5234C13.4531 0.6875 14.3281 1.07031 14.9844 1.72656L19.9609 6.70312C20.6172 7.35938 21 8.23438 21 9.16406V25.1875C21 27.1562 19.4141 28.6875 17.5 28.6875H3.5C1.53125 28.6875 0 27.1562 0 25.1875V4.1875ZM18.375 25.1875V9.4375H14C13.0156 9.4375 12.25 8.67188 12.25 7.6875V3.3125H3.5C3.00781 3.3125 2.625 3.75 2.625 4.1875V25.1875C2.625 25.6797 3.00781 26.0625 3.5 26.0625H17.5C17.9375 26.0625 18.375 25.6797 18.375 25.1875Z" fill="#E0E0E0"/>
</svg>
